<?xml version="1.0" encoding="UTF-8" standalone="no"?> <svg width="512" height="512" viewBox="0 0 512 512" fill="none" xmlns="http://www.w3.org/2000/svg">
<path fill-rule="evenodd" clip-rule="evenodd" d="M128 24C70.5624 24 24 70.5624 24 128V384C24 441.438 70.5624 488 128 488H384C441.438 488 488 441.438 488 384V128C488 70.5624 441.438 24 384 24H128ZM40 128C40 79.3989 79.3989 40 128 40H384C432.601 40 472 79.3989 472 128V384C472 432.601 432.601 472 384 472H128C79.3989 472 40 432.601 40 384V128ZM182.4 111.201C173.122 98.83 155.571 96.3228 143.2 105.601C130.829 114.88 128.322 132.43 137.6 144.801L221 256.001L137.6 367.201C128.322 379.572 130.829 397.123 143.2 406.401C155.571 415.68 173.122 413.172 182.4 400.801L256 302.668L329.6 400.801C338.879 413.172 356.429 415.68 368.8 406.401C381.171 397.123 383.679 379.572 374.4 367.201L291 256.001L374.4 144.801C383.679 132.43 381.171 114.88 368.8 105.601C356.429 96.3228 338.879 98.83 329.6 111.201L256 209.335L182.4 111.201ZM152.8 118.401C158.102 114.425 165.624 115.499 169.6 120.801L249.6 227.468C251.111 229.482 253.482 230.668 256 230.668C258.518 230.668 260.889 229.482 262.4 227.468L342.4 120.801C346.377 115.499 353.898 114.425 359.2 118.401C364.502 122.378 365.577 129.899 361.6 135.201L274.6 251.201C272.467 254.046 272.467 257.957 274.6 260.801L361.6 376.801C365.577 382.103 364.502 389.625 359.2 393.601C353.898 397.578 346.377 396.503 342.4 391.201L262.4 284.534C260.889 282.52 258.518 281.335 256 281.335C253.482 281.335 251.111 282.52 249.6 284.534L169.6 391.201C165.624 396.503 158.102 397.578 152.8 393.601C147.498 389.625 146.424 382.103 150.4 376.801L237.4 260.801C239.534 257.957 239.534 254.046 237.4 251.201L150.4 135.201C146.424 129.899 147.498 122.378 152.8 118.401Z" fill="url(#paint0_linear)"/>
<defs>
<linearGradient id="paint0_linear" x1="64" y1="64" x2="448" y2="448" gradientUnits="userSpaceOnUse">
<stop stop-color="#FF003D"/>
<stop offset="1" stop-color="#3D00EB"/>
</linearGradient>
</defs>
</svg>
